<svg width="36" height="36" viewBox="0 0 36 36" fill="none" xmlns="http://www.w3.org/2000/svg">
<path d="M6 10.9142C6 10.7098 6 10.6077 6.03806 10.5158C6.07612 10.4239 6.14838 10.3516 6.29289 10.2071L9.32843 7.17157C9.90649 6.59351 10.1955 6.30448 10.5631 6.15224C10.9306 6 11.3394 6 12.1569 6H23.8431C24.6606 6 25.0694 6 25.4369 6.15224C25.8045 6.30448 26.0935 6.59351 26.6716 7.17157L29.7071 10.2071C29.8516 10.3516 29.9239 10.4239 29.9619 10.5158C30 10.6077 30 10.7098 30 10.9142V12H6V10.9142Z" fill="#3E5A47" stroke="#3E5A47" stroke-width="2"/>
<path fill-rule="evenodd" clip-rule="evenodd" d="M31.5 12H4.5V27.5C4.5 29.3856 4.5 30.3284 5.08579 30.9142C5.67157 31.5 6.61438 31.5 8.5 31.5H27.5C29.3856 31.5 30.3284 31.5 30.9142 30.9142C31.5 30.3284 31.5 29.3856 31.5 27.5V12ZM14.5 16.5C14.5 15.9477 14.0523 15.5 13.5 15.5C12.9477 15.5 12.5 15.9477 12.5 16.5C12.5 17.9587 13.0795 19.3576 14.1109 20.3891C15.1424 21.4205 16.5413 22 18 22C19.4587 22 20.8576 21.4205 21.8891 20.3891C22.9205 19.3576 23.5 17.9587 23.5 16.5C23.5 15.9477 23.0523 15.5 22.5 15.5C21.9477 15.5 21.5 15.9477 21.5 16.5C21.5 17.4283 21.1313 18.3185 20.4749 18.9749C19.8185 19.6313 18.9283 20 18 20C17.0717 20 16.1815 19.6313 15.5251 18.9749C14.8687 18.3185 14.5 17.4283 14.5 16.5Z" fill="#3E5A47"/>
</svg>
